HIERARCHY
ROOT hip
{
	OFFSET 0.000000 0.000000 0.000000 
	CHANNELS 6 Xposition Yposition Zposition Xrotation Zrotation Yrotation
	JOINT abdomen
	{
		OFFSET 0.000000 3.402643 0.000000 
		CHANNELS 3 Xrotation Zrotation Yrotation
		JOINT chest
		{
			OFFSET 0.000000 8.438565 -0.680529 
			CHANNELS 3 Xrotation Zrotation Yrotation
			JOINT neck
			{
				OFFSET 0.000000 10.207942 -0.272212 
				CHANNELS 3 Xrotation Zrotation Yrotation
				JOINT head
				{
					OFFSET 0.000000 3.130431 0.000000 
					CHANNELS 3 Xrotation Zrotation Yrotation
					End Site
					{
						OFFSET 0.000000 3.130435 0.000000 
					}
				}
			}
			JOINT lCollar
			{
				OFFSET 3.470700 6.669187 -0.816635 
				CHANNELS 3 Yrotation Zrotation Xrotation
				JOINT lShldr
				{
					OFFSET 3.198488 0.000000 0.000000 
					CHANNELS 3 Zrotation Yrotation Xrotation
					JOINT lForeArm
					{
						OFFSET 10.139888 0.000000 0.000000 
						CHANNELS 3 Yrotation Zrotation Xrotation
						JOINT lHand
						{
							OFFSET 8.370511 0.000000 0.000000 
							CHANNELS 3 Zrotation Yrotation Xrotation
							End Site
							{
								OFFSET 4.083176 0.000000 0.000000 
							}
						}
					}
				}
			}
			JOINT rCollar
			{
				OFFSET -3.470700 6.669187 -0.816635 
				CHANNELS 3 Yrotation Zrotation Xrotation
				JOINT rShldr
				{
					OFFSET -3.198488 0.000000 0.000000 
					CHANNELS 3 Zrotation Yrotation Xrotation
					JOINT rForeArm
					{
						OFFSET -10.139888 0.000000 0.000000 
						CHANNELS 3 Yrotation Zrotation Xrotation
						JOINT rHand
						{
							OFFSET -8.370511 0.000000 0.000000 
							CHANNELS 3 Zrotation Yrotation Xrotation
							End Site
							{
								OFFSET -4.083176 0.000000 0.000000 
							}
						}
					}
				}
			}
		}
	}
	JOINT lThigh
	{
		OFFSET 5.308129 -1.633274 1.361059 
		CHANNELS 3 Xrotation Zrotation Yrotation
		JOINT lShin
		{
			OFFSET -2.041588 -20.007561 0.000000 
			CHANNELS 3 Xrotation Zrotation Yrotation
			JOINT lFoot
			{
				OFFSET 0.000000 -19.190928 -1.224953 
				CHANNELS 3 Xrotation Yrotation Zrotation
				End Site
				{
					OFFSET 0.000000 -2.449906 4.627600 
				}
			}
		}
	}
	JOINT rThigh
	{
		OFFSET -5.308129 -1.633274 1.361059 
		CHANNELS 3 Xrotation Zrotation Yrotation
		JOINT rShin
		{
			OFFSET 2.041588 -20.007561 0.000000 
			CHANNELS 3 Xrotation Zrotation Yrotation
			JOINT rFoot
			{
				OFFSET 0.000000 -19.190928 -1.224953 
				CHANNELS 3 Xrotation Yrotation Zrotation
				End Site
				{
					OFFSET 0.000000 -2.449906 4.627600 
				}
			}
		}
	}
}
MOTION
Frames: 9
Frame Time: 0.011111
0.090138 50.460690 -79.767212 -1.807136 -2.433854 -6.205682 41.226391 4.821197 -2.043065 -31.575312 5.684958 -1.587168 -12.775314 -6.522443 -6.039146 41.551594 4.086636 -13.345111 2.656661 -4.973740 1.830115 -71.942947 -13.050864 13.679942 -65.641434 9.442801 14.982950 8.524705 12.647240 -37.454479 -4.438679 -1.473473 2.444106 51.525898 35.148746 -28.230383 86.172966 -1.286354 29.454020 -8.534408 -12.637552 39.281113 -24.041590 10.829471 -0.720021 41.620426 -4.514058 -6.306603 -17.745382 2.065980 -2.232707 8.542466 1.211118 4.210266 24.049536 5.611071 4.053075 -31.612360 -9.712792 -3.744833 
0.106387 50.456402 -79.579575 -1.446554 -2.532257 -6.637491 41.031403 4.732131 -1.588709 -31.368778 5.623462 -1.436655 -12.293183 -6.870433 -6.233699 40.682384 4.670560 -13.554214 2.656661 -4.973740 1.830115 -71.939476 -13.334208 13.847857 -65.216583 9.452555 14.793344 8.524705 12.647240 -37.669319 -4.438679 -1.473473 2.444106 51.767204 35.045200 -25.834339 86.130280 -1.324423 29.186682 -8.534408 -12.637552 36.868999 -24.749580 11.071480 -0.834213 40.454082 -4.621363 -6.156084 -17.360302 2.561718 -2.123786 8.529014 1.249970 4.529405 23.675669 5.625223 4.003023 -31.435484 -9.731261 -3.713111 
0.115278 50.462536 -79.363434 -1.764910 -2.724762 -7.224576 41.733177 4.553869 -1.297704 -32.126873 5.790210 -1.415104 -11.642762 -6.978171 -6.261748 40.714787 4.631261 -13.610600 2.656661 -4.973740 1.830115 -72.200600 -12.703487 13.668277 -64.928886 9.453727 14.646579 8.524705 12.647240 -37.874401 -4.438679 -1.473473 2.444106 51.830078 34.242531 -22.744787 86.074059 -1.407395 28.896656 -8.534408 -12.637552 34.945168 -24.501167 11.405678 -0.927594 39.219227 -4.702852 -6.008749 -17.258833 3.116626 -1.978848 9.361359 1.289228 4.951149 23.230934 5.636876 3.964864 -31.360472 -9.677312 -3.653591 
0.113746 50.439842 -79.230370 -1.688005 -2.837811 -7.087904 41.654781 4.765674 -1.436921 -31.838217 5.491642 -1.431528 -10.937581 -6.824299 -6.310258 40.207989 4.814203 -13.510635 2.656661 -4.973740 1.830115 -71.928757 -12.855806 13.562488 -64.640556 9.453008 14.511773 8.524705 12.647240 -38.099010 -4.438679 -1.473473 2.444106 52.448524 34.149025 -20.131584 85.987427 -1.548458 28.533987 -8.534408 -12.637552 32.972515 -24.972662 11.471010 -1.625686 37.931767 -4.800381 -5.869745 -16.746006 3.738096 -1.854086 9.722152 1.406435 4.822135 22.776810 5.645857 3.906761 -31.332230 -9.781544 -3.704155 
0.151763 50.470505 -78.961792 -1.597749 -2.799935 -7.874546 42.173088 4.182715 -0.427246 -32.011078 5.135663 -1.086299 -12.225379 -6.638117 -6.490942 41.128510 4.920204 -13.927861 2.656661 -4.973740 1.830115 -71.573402 -13.234508 14.257031 -64.440002 9.457561 14.421757 8.524705 12.647240 -38.294323 -4.438679 -1.473473 2.444106 52.911800 34.000462 -18.581491 85.846687 -1.779193 28.075655 -8.534408 -12.637552 30.843607 -25.016113 11.629242 -1.700340 36.603336 -4.903895 -5.698599 -16.358629 4.656876 -1.654362 10.129501 1.103614 5.069016 22.266476 5.680492 3.818845 -31.085192 -9.352575 -3.393816 
0.143485 50.469273 -78.834557 -1.802204 -2.859694 -7.629000 42.558014 4.257907 -0.749501 -32.424591 5.280075 -1.212105 -11.303317 -6.726006 -6.469471 40.721191 5.004416 -13.782122 2.656661 -4.973740 1.830115 -71.769569 -12.771272 13.987525 -64.376083 9.457761 14.396789 8.524705 12.647240 -38.440807 -4.438679 -1.473473 2.444106 53.238632 34.021313 -16.312244 85.605003 -2.142944 27.507675 -8.534408 -12.637552 28.910011 -25.144094 11.678562 -2.121649 35.254539 -4.991414 -5.528829 -15.371566 5.178507 -1.628816 10.824923 1.152721 4.958472 21.768730 5.696560 3.757425 -31.163729 -9.350871 -3.436262 
0.130302 50.463451 -78.676659 -1.376096 -2.908793 -7.598841 42.474854 4.290670 -0.687239 -32.119080 5.158019 -1.179777 -11.983034 -6.701005 -6.521814 41.245995 5.036715 -13.932982 2.656661 -4.973740 1.830115 -71.643944 -13.311164 14.102818 -64.204155 9.453033 14.311967 8.524705 12.647240 -38.431038 -4.438679 -1.473473 2.444106 53.732513 34.926750 -14.857832 85.204247 -2.673486 26.824278 -8.534408 -12.637552 27.298687 -25.953541 11.883265 -2.630014 33.934311 -5.069734 -5.356862 -14.162499 5.863141 -1.646875 10.914035 1.240568 4.950190 21.127844 5.714844 3.683048 -30.907993 -9.496669 -3.408584 
0.137353 50.447815 -78.482895 -1.559446 -3.205648 -7.904401 42.960430 4.187793 -0.059818 -31.574533 4.617757 -0.937140 -12.937558 -6.486514 -6.702726 41.804535 5.419176 -14.187754 2.656661 -4.973740 1.830115 -71.004044 -14.174362 14.642152 -63.971073 9.454762 14.210186 8.524705 12.647240 -38.479870 -4.438679 -1.473473 2.444106 54.172840 34.201664 -12.045349 84.906059 -3.021160 26.418594 -8.534408 -12.637552 27.962748 -25.974182 12.274286 -3.204520 32.628368 -5.166904 -5.210575 -12.939808 6.913822 -1.600507 11.717069 1.396519 5.173166 20.515217 5.738661 3.583002 -30.447733 -9.687895 -3.345170 
0.185182 50.474796 -78.156685 -1.497722 -3.340256 -8.880845 42.701832 3.974364 0.408768 -31.585726 4.750073 -0.802267 -12.095899 -7.020394 -6.592385 41.564369 5.760719 -13.906640 2.656661 -4.973740 1.830115 -71.476563 -13.744477 14.304920 -63.843029 9.452649 14.149376 8.524705 12.647240 -38.792374 -4.438679 -1.473473 2.444106 54.554298 35.559196 -11.900867 83.944473 -3.969320 25.380657 -8.534408 -12.637552 25.677593 -25.902977 12.624681 -3.584429 31.392017 -5.245154 -5.053344 -12.259315 8.244603 -1.453215 12.303183 1.172069 5.561919 19.840704 5.758185 3.486563 -29.972445 -9.439272 -3.077211 
